<svg width="80" height="76" viewBox="0 0 80 76" fill="none" xmlns="http://www.w3.org/2000/svg">
<ellipse cx="39.6757" cy="38.1603" rx="39.5955" ry="37.2313" fill="#F3E5E6"/>
<path d="M38.2999 25.5952C44.9113 25.5952 50.2896 30.6525 50.2896 36.8692C50.2896 43.0858 44.9159 48.1474 38.2999 48.1474C31.6886 48.1474 26.3102 43.0902 26.3102 36.8692C26.3102 30.6481 31.6886 25.5952 38.2999 25.5952ZM38.2999 20.4038C28.629 20.4038 20.7892 27.7756 20.7892 36.8692C20.7892 45.9627 28.629 53.3345 38.2999 53.3345C47.9708 53.3345 55.8106 45.9627 55.8106 36.8692C55.8106 27.7756 47.9754 20.4038 38.2999 20.4038Z" fill="#F45460"/>
<path d="M48.8391 47.2433L58.6799 56.4973" stroke="#F45460" stroke-width="5.15905" stroke-miterlimit="10" stroke-linecap="round"/>
<path d="M28.598 39.5252L32.6467 36.2073L38.3793 39.6896C38.6875 39.8496 39.074 39.7977 39.3178 39.5598L45.5243 33.4865" stroke="#F45460" stroke-width="1.71968" stroke-miterlimit="10" stroke-linecap="round"/>
<path d="M32.6418 38.3355C33.8919 38.3355 34.9053 37.3827 34.9053 36.2074C34.9053 35.0321 33.8919 34.0793 32.6418 34.0793C31.3917 34.0793 30.3783 35.0321 30.3783 36.2074C30.3783 37.3827 31.3917 38.3355 32.6418 38.3355Z" fill="#F45460"/>
<path d="M32.6431 37.2503C33.2555 37.2503 33.7519 36.7834 33.7519 36.2075C33.7519 35.6316 33.2555 35.1648 32.6431 35.1648C32.0306 35.1648 31.5342 35.6316 31.5342 36.2075C31.5342 36.7834 32.0306 37.2503 32.6431 37.2503Z" fill="#FCFCFC"/>
<path d="M38.8404 41.6976C40.0905 41.6976 41.1039 40.7445 41.1039 39.5689C41.1039 38.3932 40.0905 37.4402 38.8404 37.4402C37.5903 37.4402 36.5769 38.3932 36.5769 39.5689C36.5769 40.7445 37.5903 41.6976 38.8404 41.6976Z" fill="#F45460"/>
<path d="M38.8388 40.611C39.4512 40.611 39.9477 40.1442 39.9477 39.5685C39.9477 38.9927 39.4512 38.526 38.8388 38.526C38.2264 38.526 37.7299 38.9927 37.7299 39.5685C37.7299 40.1442 38.2264 40.611 38.8388 40.611Z" fill="#FCFCFC"/>
<path d="M45.5191 35.6098C46.7692 35.6098 47.7825 34.6571 47.7825 33.4819C47.7825 32.3067 46.7692 31.354 45.5191 31.354C44.2691 31.354 43.2557 32.3067 43.2557 33.4819C43.2557 34.6571 44.2691 35.6098 45.5191 35.6098Z" fill="#F45460"/>
<path d="M45.5205 34.5252C46.1328 34.5252 46.6292 34.0582 46.6292 33.4822C46.6292 32.9063 46.1328 32.4393 45.5205 32.4393C44.9082 32.4393 44.4118 32.9063 44.4118 33.4822C44.4118 34.0582 44.9082 34.5252 45.5205 34.5252Z" fill="#FCFCFC"/>
</svg>
