<svg width="80" height="75" viewBox="0 0 80 75" fill="none" xmlns="http://www.w3.org/2000/svg">
<ellipse cx="39.8967" cy="37.6635" rx="39.5955" ry="37.2313" fill="#F1E9E5"/>
<path d="M68.5503 30.1257L58.1393 19.733C57.902 19.4998 57.5084 19.4897 57.2604 19.7077L52.8879 23.5809C52.6345 23.8039 52.6237 24.174 52.861 24.4123L63.272 34.8049C63.5092 35.0432 63.9028 35.0533 64.1562 34.8303L68.5287 30.9571C68.7767 30.734 68.7875 30.364 68.5503 30.1257ZM64.7492 31.3069C64.2047 31.7936 63.3421 31.7682 62.8245 31.2511C62.3069 30.7391 62.3338 29.928 62.8838 29.4413C63.4283 28.9546 64.291 28.98 64.8085 29.4971C65.3207 30.0091 65.2938 30.8202 64.7492 31.3069ZM22.7979 21.1576C22.5284 20.9599 22.1348 21.0055 21.9245 21.259L12.2036 33.0204C11.9934 33.2739 12.0419 33.644 12.3115 33.8417L17.0776 37.3245C17.3525 37.5222 17.7407 37.4766 17.951 37.2231L27.6665 25.4667C27.8767 25.2133 27.8282 24.8432 27.5586 24.6455L22.7979 21.1576ZM18.226 33.4057C17.7623 33.9634 16.905 34.0648 16.312 33.6338C15.7189 33.1979 15.6111 32.3918 16.0694 31.8341C16.533 31.2765 17.3903 31.1751 17.9833 31.606C18.5818 32.042 18.6896 32.8481 18.226 33.4057Z" fill="#FE753E"/>
<path d="M54.3762 44.8022L43.701 36.9646L41.7547 38.6376C39.005 40.9594 36.5249 41.583 34.6595 41.583C34.1796 41.583 33.7429 41.5424 33.3493 41.4765C30.7776 41.0608 29.0361 39.5146 28.2544 38.1864C27.2893 36.7466 27.5697 34.9266 28.9391 33.7454L36.6058 27.1904C35.7 26.5415 34.6379 26.2171 33.5758 26.2171C32.0823 26.2171 30.6105 26.8406 29.6238 28.0371L22.1296 37.142C21.5204 37.8771 21.2454 38.8099 21.364 39.7377L21.8493 43.4334C21.9679 44.3611 22.4801 45.2027 23.2618 45.7806L36.3848 55.4027C36.7514 55.6714 37.1881 55.8032 37.6248 55.8032C38.1747 55.8032 38.7139 55.5953 39.1129 55.1898L39.7005 54.5814C40.4769 53.7855 40.3907 52.5435 39.5118 51.8489L41.717 53.5878C42.0944 53.8818 42.5526 54.0288 43.0109 54.0288C43.5177 54.0288 44.0191 53.8514 44.4073 53.4965L45.0867 52.8831C45.9493 52.1024 45.9008 50.7843 44.9788 50.0644L46.6071 51.342C46.9845 51.636 47.4374 51.783 47.8956 51.783C48.4078 51.783 48.9146 51.6005 49.3082 51.2406L49.9067 50.688C50.7477 49.9123 50.7046 48.6297 49.8204 47.9048L50.8933 48.7767C51.2761 49.086 51.7452 49.2381 52.2088 49.2381C52.7857 49.2381 53.3572 49.0049 53.7562 48.5588L54.6889 47.5094C55.4114 46.6881 55.2712 45.4612 54.3762 44.8022ZM59.5898 35.4184L50.5752 26.7697C50.1816 26.3945 49.6694 26.1563 49.1195 26.0853L44.5044 25.5175C43.7765 25.4262 43.0487 25.6442 42.5041 26.1056L41.4204 27.0333L31.031 35.9152C30.9124 36.0166 30.6536 36.3005 30.8908 36.6402L30.9555 36.7415C31.3599 37.4412 32.3681 38.3486 33.8723 38.5919C35.6677 38.8809 37.6679 38.1458 39.6574 36.4678L43.5393 33.1269L55.7564 42.095L59.5628 38.739C60.5441 37.8264 60.5549 36.3411 59.5898 35.4184Z" fill="#FE753E"/>
</svg>
