<svg width="80" height="75" viewBox="0 0 80 75" fill="none" xmlns="http://www.w3.org/2000/svg">
<ellipse cx="40.1178" cy="37.6635" rx="39.5955" ry="37.2313" fill="#DEEEEB"/>
<path d="M39.633 26.3481C39.633 26.3481 39.9369 27.2217 40.8236 27.2217C41.7103 27.2217 41.7811 26.9161 42.3306 27.0023C42.8801 27.0885 44.5577 27.3079 45.3653 26.4538C46.3477 26.4969 47.4342 25.6429 47.4342 25.6429C47.4342 25.6429 48.6414 25.0827 48.4916 24.1856C47.788 23.0259 46.8223 21.8036 46.1187 20.8438C45.4152 19.884 45.2445 19.4883 43.9208 19.5589C42.6011 19.6294 40.22 19.7352 37.535 20.2679C34.8499 20.8007 33.5969 21.0828 32.2565 22.5754C30.9161 24.068 25.1131 31.8719 23.2523 34.3008C21.3915 36.7297 19.4724 41.2075 18.6315 44.7491C17.7906 48.2906 17.1079 49.505 18.2402 50.7665C19.3725 52.0319 20.6255 53.5754 26.4244 54.8957C32.2232 56.2159 38.2718 56.0043 42.2598 54.5744C46.2478 53.1445 47.2219 52.3139 49.1077 52.4432C50.9934 52.5725 56.3052 52.5059 59.6105 50.2885C62.9199 48.0712 65.351 42.6375 62.1873 37.3174C58.8778 31.7583 48.8329 30.2147 42.7302 37.6621C42.7302 37.6621 47.4217 39.9461 47.8546 42.4612C47.8546 42.4612 43.6876 38.0069 38.7921 38.2184C33.9008 38.43 31.4073 41.6933 31.4073 41.6933C31.4073 41.6933 31.4447 38.4535 31.7486 36.6396C32.4188 32.6084 35.2371 26.5557 35.7824 26.3833C36.3236 26.2227 36.6649 27.0023 39.633 26.3481Z" fill="#48C4AA"/>
</svg>
