<svg width="114" height="62" viewBox="0 0 114 62" fill="none" xmlns="http://www.w3.org/2000/svg">
<path d="M3.00052 14.6531C13.8115 5.3093 22.8783 3.19136 29.2458 3.0114C50.5217 2.44385 60.3222 23.2494 82.7885 23.9554C94.4162 24.3153 104.106 19.1243 110.515 14.6393" stroke="#FE753E" stroke-width="5" stroke-miterlimit="10" stroke-linecap="round" stroke-linejoin="round"/>
<path d="M3 32.0104C13.8109 22.6675 22.8777 20.5497 29.2452 20.3698C50.521 19.8023 60.3214 40.606 82.7876 41.3119C94.4152 41.6717 104.105 36.4812 110.514 31.9966" stroke="#FE753E" stroke-width="5" stroke-miterlimit="10" stroke-linecap="round" stroke-linejoin="round"/>
<path d="M3 49.384C13.8109 40.0406 22.8777 37.9228 29.2452 37.7428C50.521 37.1753 60.3214 57.9799 82.7876 58.6859C94.4152 59.0458 104.105 53.855 110.514 49.3702" stroke="#FE753E" stroke-width="5" stroke-miterlimit="10" stroke-linecap="round" stroke-linejoin="round"/>
</svg>
