<svg width="24" height="24" viewBox="0 0 24 24" fill="none" xmlns="http://www.w3.org/2000/svg">
<path d="M11.5038 18.6072L4.679 18.6072C4.29597 18.6072 3.98259 18.2938 3.98259 17.9108C3.98259 17.5277 4.29597 17.2144 4.679 17.2144L11.5038 17.2144C11.8868 17.2144 12.2002 17.5277 12.2002 17.9108C12.2002 18.2938 11.8868 18.6072 11.5038 18.6072ZM18.0153 17.9108C18.0153 18.2938 18.3286 18.6072 18.7117 18.6072L19.3036 18.6072C19.6866 18.6072 20 18.2938 20 17.9108C20 17.5277 19.6866 17.2144 19.3036 17.2144L18.7117 17.2144C18.3286 17.2144 18.0153 17.5277 18.0153 17.9108ZM11.9913 8.14364C10.8422 8.14364 9.90207 7.20348 9.90207 6.07182C9.90207 4.94015 10.8422 4 11.9913 4C13.1404 4 14.0805 4.94015 14.0805 6.07182C14.0805 7.20348 13.1404 8.14364 11.9913 8.14364ZM11.9913 6.75082C12.3743 6.75082 12.6877 6.43743 12.6877 6.07182C12.6877 5.7062 12.3743 5.39281 11.9913 5.39281C11.6083 5.39281 11.2949 5.7062 11.2949 6.07182C11.2949 6.43743 11.6083 6.75082 11.9913 6.75082ZM8.56149 14.0631C7.41241 14.0631 6.47226 13.123 6.47226 11.9913C6.47226 10.8596 7.41241 9.91947 8.56149 9.91947C9.71056 9.91947 10.6507 10.8596 10.6507 11.9913C10.6507 13.123 9.72797 14.0631 8.56149 14.0631ZM8.56149 12.6703C8.94451 12.6703 9.2579 12.3569 9.2579 11.9913C9.2579 11.6257 8.94451 11.3123 8.56149 11.3123C8.17846 11.3123 7.86508 11.6257 7.86508 11.9913C7.86508 12.3569 8.17846 12.6703 8.56149 12.6703ZM15.0207 20C13.8716 20 12.9314 19.0598 12.9314 17.9282C12.9314 16.7965 13.8716 15.8564 15.0207 15.8564C16.1697 15.8564 17.1099 16.7965 17.1099 17.9282C17.1099 19.0598 16.1697 20 15.0207 20ZM15.0207 18.6072C15.4037 18.6072 15.7171 18.2938 15.7171 17.9282C15.7171 17.5626 15.4037 17.2492 15.0207 17.2492C14.6376 17.2492 14.3242 17.5626 14.3242 17.9282C14.3242 18.2938 14.6202 18.6072 15.0207 18.6072ZM5.77585 11.9913C5.77585 11.6083 5.46247 11.2949 5.07944 11.2949L4.679 11.2949C4.29597 11.2949 3.98259 11.6083 3.98259 11.9913C3.98259 12.3743 4.29597 12.6877 4.679 12.6877L5.07944 12.6877C5.46247 12.6877 5.77585 12.3743 5.77585 11.9913ZM11.5212 11.9913C11.5212 12.3743 11.8346 12.6877 12.2176 12.6877L19.3036 12.6877C19.6866 12.6877 20 12.3743 20 11.9913C20 11.6083 19.6866 11.2949 19.3036 11.2949L12.2176 11.2949C11.8346 11.2949 11.5212 11.6083 11.5212 11.9913ZM8.97932 6.07182C8.97932 5.68879 8.66593 5.37541 8.28291 5.37541L4.679 5.37541C4.29597 5.37541 3.98259 5.68879 3.98259 6.07182C3.98259 6.45484 4.29597 6.76823 4.679 6.76823L8.28291 6.76823C8.66593 6.76823 8.97932 6.45484 8.97932 6.07182ZM14.9685 6.07182C14.9685 6.45484 15.2818 6.76823 15.6649 6.76823L19.3036 6.76823C19.6866 6.76823 20 6.45484 20 6.07182C20 5.68879 19.6866 5.37541 19.3036 5.37541L15.6649 5.37541C15.2818 5.37541 14.9685 5.68879 14.9685 6.07182Z" fill="#838C95"/>
</svg>
