<svg width="64" height="64" viewBox="0 0 64 64" fill="none" xmlns="http://www.w3.org/2000/svg">
<path fill-rule="evenodd" clip-rule="evenodd" d="M26.5003 22.2328L35.0003 17.3121C37.8336 15.6719 39.1669 19.7724 33.1669 23.2169L28.5003 25.8412C27.5003 26.3333 26.1669 26.0052 25.6669 25.0211C25.0003 24.037 25.3336 22.7248 26.5003 22.2328Z" fill="white"/>
<path fill-rule="evenodd" clip-rule="evenodd" d="M31.5003 30.9258L36.0003 28.3015C40.8337 25.5131 44.5003 28.3015 42.167 29.6137L33.667 34.5343C32.667 35.1904 31.3337 34.6983 30.8337 33.7142C30.167 32.7301 30.5003 31.4179 31.5003 30.9258Z" fill="white"/>
<path fill-rule="evenodd" clip-rule="evenodd" d="M29.0001 26.4972L34.6667 23.2168C35.6667 22.5607 37.0001 23.0528 37.5001 24.0369C38.1667 25.0211 37.6667 26.3332 36.6667 26.8253L31.0001 30.1057C30.1667 30.7618 28.8334 30.4338 28.1667 29.4496C27.6667 28.3015 28.0001 27.1533 29.0001 26.4972Z" fill="white"/>
<path fill-rule="evenodd" clip-rule="evenodd" d="M22.6667 16.328C24.1667 15.5079 26.0001 16.164 26.6667 17.4762C26.6667 17.6402 26.8334 17.9682 26.6667 18.1322C25.6667 19.1164 24.1667 20.1005 24.1667 20.2645C24.1667 20.4285 25.6667 19.9365 26.8334 19.1164H27.0001C27.0001 19.1164 27.0001 19.1164 27.0001 19.2804C27.0001 20.2645 26.5001 21.0846 25.5001 21.7407C24.0001 22.5608 22.1667 21.9047 21.5001 20.5926C20.6667 18.9524 21.1667 17.1481 22.6667 16.328Z" fill="white"/>
<path fill-rule="evenodd" clip-rule="evenodd" d="M17.4998 42.8993H13.8332V41.0951H16.1665C16.3332 41.0951 16.4998 41.0951 16.6665 40.9311V39.4549H13.9998V37.8147H17.3332L17.4998 36.1744H12.1665V43.7194C12.4998 44.7035 14.3332 44.3755 15.4998 44.3755C16.6665 44.3755 17.6665 44.5395 17.4998 42.8993Z" fill="white"/>
<path fill-rule="evenodd" clip-rule="evenodd" d="M30.1665 38.7988C29.6665 38.3068 29.4998 38.3068 28.6665 38.3068V46.8359C30.9998 46.9999 30.4998 46.3438 30.4998 44.2115C31.6665 44.2115 32.1665 44.5396 33.1665 43.7195C33.8332 43.0634 33.9998 42.0793 33.9998 40.9311C33.9998 39.783 33.6665 38.9629 32.9998 38.4708C31.8332 37.8147 30.8332 38.4708 30.1665 38.7988ZM30.4998 40.275C32.6665 38.6348 31.9998 42.2433 31.9998 42.7353C31.6665 43.3914 30.6665 43.3914 30.4998 42.7353C30.3332 42.4073 30.3332 40.6031 30.4998 40.275Z" fill="white"/>
<path fill-rule="evenodd" clip-rule="evenodd" d="M34.9997 38.7989C34.9997 39.7831 35.1663 40.1111 35.9997 39.9471C36.9997 39.7831 37.833 39.291 37.9997 40.6032C36.1663 40.6032 34.333 40.9312 34.833 43.0635C34.9997 43.7196 35.4997 44.3756 36.1663 44.3756C37.4997 44.5397 37.6663 44.0476 38.333 43.8836C38.9997 44.3756 40.1663 44.8677 39.9997 43.5555C39.9997 43.2275 39.833 42.8995 39.833 42.2434C39.833 38.4709 39.9997 37.8148 34.9997 38.7989ZM37.9997 41.9153V42.8995C37.6663 43.0635 37.4997 43.2275 37.1663 43.2275C36.833 43.2275 36.6663 43.0635 36.6663 42.7354C36.4997 41.9153 37.333 41.7513 37.9997 41.9153Z" fill="white"/>
<path fill-rule="evenodd" clip-rule="evenodd" d="M40.5 38.4708C40.5 38.4708 40.5 38.6348 40.5 38.7988C40.6667 40.111 41.3333 42.2433 41.8333 43.7194C42.1667 44.5396 42.5 44.5395 44.5 44.3755C44.8333 43.8835 46.1667 38.9628 46.1667 38.4708C45.6667 38.3067 45.1667 38.1427 44.6667 38.4708C44.5 38.6348 44.5 38.7988 44.3333 38.9628C43.8333 40.275 43.6667 41.7512 43.3333 43.0634C43.3333 42.5713 42.8333 40.7671 42.6667 40.111C42.3333 38.4708 42.1667 38.1427 40.5 38.4708Z" fill="white"/>
<path fill-rule="evenodd" clip-rule="evenodd" d="M18.8332 44.3754H20.6665V42.4072V40.4389C20.8332 40.2749 20.9998 40.1109 21.3332 40.1109C22.1665 39.9469 21.9998 40.931 21.9998 41.5871V44.2114C21.9998 44.3754 21.9998 44.3754 21.9998 44.5394H23.8332V44.3754V41.7511C23.8332 40.931 23.6665 40.1109 24.4998 40.1109C25.1665 40.1109 25.3332 40.6029 25.3332 41.095V44.0474C25.3332 44.5394 25.8332 44.5394 26.3332 44.5394C26.6665 44.5394 26.9998 44.3754 27.3332 44.2114L26.9998 39.4548C26.3332 37.3225 23.6665 39.1267 23.4998 39.1267C22.4998 37.8146 21.4998 38.6347 20.4998 38.9627C19.9998 38.4707 19.8332 38.3066 18.6665 38.3066L18.8332 44.3754Z" fill="white"/>
<path fill-rule="evenodd" clip-rule="evenodd" d="M46.8332 38.7989C46.8332 39.7831 46.9998 40.1111 47.8332 39.9471C48.8332 39.7831 49.6665 39.291 49.8332 40.6032C47.9998 40.6032 46.1665 40.9312 46.6665 43.0635C46.8332 43.7196 47.3332 44.3756 47.9998 44.3756C49.3332 44.5397 49.4998 44.0476 50.1665 43.8836C50.8332 44.3756 51.9998 44.8677 51.8332 43.5555C51.8332 43.2275 51.6665 42.8995 51.6665 42.2434C51.8332 38.4709 51.8332 37.8148 46.8332 38.7989ZM49.8332 41.9153V42.8995C49.4998 43.0635 49.3332 43.2275 48.9998 43.2275C48.6665 43.2275 48.4998 43.0635 48.4998 42.7354C48.3332 41.9153 49.1665 41.7513 49.8332 41.9153Z" fill="white"/>
</svg>
