<svg width="24" height="24" viewBox="0 0 24 24" fill="none" xmlns="http://www.w3.org/2000/svg">
<path d="M18.4 5H7.19987C6.31746 5 5.59985 5.71761 5.59985 6.60002V10.6001H7.19987V8.20003L12.3199 12.0401C12.4623 12.1465 12.6311 12.2001 12.7999 12.2001C12.9687 12.2001 13.1375 12.1465 13.2799 12.0401L18.4 8.20003V15.4001H11.9999V17.0001H18.4C19.2824 17.0001 20 16.2825 20 15.4001V6.60002C20 5.71761 19.2824 5 18.4 5ZM12.7999 10.4001L7.73267 6.60002H17.8672L12.7999 10.4001Z" fill="#0E3860"/>
<path d="M4 12.4001H9.60005V14.0002H4V12.4001ZM5.60002 14.8002H10.4001V16.4002H5.60002V14.8002ZM8.00004 17.2002H11.2001V18.8002H8.00004V17.2002Z" fill="#0E3860"/>
</svg>
