<svg width="16" height="16" viewBox="0 0 16 16" fill="none" xmlns="http://www.w3.org/2000/svg">
<path d="M8 0C3.6 0 0 3.6 0 8C0 12.4 3.6 16 8 16C12.4 16 16 12.4 16 8C16 3.6 12.4 0 8 0ZM8 15.3333C4 15.3333 0.666667 12 0.666667 8C0.666667 4 4 0.666667 8 0.666667C12 0.666667 15.3333 4 15.3333 8C15.3333 12 12 15.3333 8 15.3333Z" fill="white"/>
<path d="M6.26653 6.59999C6.26653 5.99999 5.79986 5.53333 5.19986 5.53333C4.59986 5.53333 4.19986 6.06666 4.19986 6.59999C4.19986 7.19999 4.66653 7.66666 5.26653 7.66666C5.86653 7.66666 6.26653 7.19999 6.26653 6.59999ZM4.86653 6.59999C4.86653 6.39999 4.99986 6.26666 5.19986 6.26666C5.39986 6.26666 5.53319 6.39999 5.53319 6.59999C5.53319 6.79999 5.39986 6.93332 5.19986 6.93332C4.99986 6.93332 4.86653 6.79999 4.86653 6.59999Z" fill="white"/>
<path d="M10.8001 5.53333C10.2001 5.53333 9.7334 5.99999 9.7334 6.59999C9.7334 7.19999 10.2001 7.66666 10.8001 7.66666C11.4001 7.66666 11.8667 7.19999 11.8667 6.59999C11.8001 6.06666 11.3334 5.53333 10.8001 5.53333ZM10.8001 6.93332C10.6001 6.93332 10.4667 6.79999 10.4667 6.59999C10.4667 6.39999 10.6001 6.26666 10.8001 6.26666C11.0001 6.26666 11.1334 6.39999 11.1334 6.59999C11.1334 6.79999 11.0001 6.93332 10.8001 6.93332Z" fill="white"/>
<path d="M11.3334 9.80007C11.2001 9.66674 11.0001 9.66674 10.8667 9.80007C10.1334 10.6001 9.06674 11.0667 8.00008 11.0667C6.93341 11.0667 5.86674 10.6001 5.13341 9.80007C5.00008 9.66674 4.80008 9.66674 4.66674 9.80007C4.53341 9.93341 4.53341 10.1334 4.66674 10.2667C5.53341 11.2001 6.73341 11.8001 8.06674 11.8001C9.33341 11.8001 10.6001 11.2667 11.4667 10.2667C11.5334 10.2001 11.5334 9.93341 11.3334 9.80007Z" fill="white"/>
</svg>
