<svg width="24" height="24" viewBox="0 0 24 24" fill="none" xmlns="http://www.w3.org/2000/svg">
<path d="M16.9681 6H14.2347V5.46667C14.2347 4.66667 13.5681 4 12.7681 4H10.7681C9.90141 4 9.23474 4.66667 9.23474 5.46667V6H6.50141C5.76807 6 5.23474 6.53333 5.23474 7.26667V9C5.23474 9.26667 5.43474 9.53333 5.76807 9.53333H6.03474L6.43474 18.6C6.50141 19.4 7.10141 20 7.90141 20H15.5014C16.3014 20 16.9681 19.4 16.9681 18.6L17.3681 9.53333H17.6347C17.9014 9.53333 18.1681 9.33333 18.1681 9V7.26667C18.2347 6.53333 17.7014 6 16.9681 6ZM10.2347 5.46667C10.2347 5.2 10.4347 4.93333 10.7681 4.93333H12.7681C13.0347 4.93333 13.3014 5.13333 13.3014 5.46667V6H10.2347V5.46667ZM6.23474 7.26667C6.23474 7.13333 6.36807 7 6.50141 7H17.0347C17.1681 7 17.3014 7.13333 17.3014 7.26667V8.53333C17.1681 8.53333 6.96807 8.53333 6.30141 8.53333V7.26667H6.23474ZM16.0347 18.5333C16.0347 18.8 15.8347 19 15.5681 19H7.96807C7.70141 19 7.50141 18.8 7.50141 18.5333L7.03474 9.46667H16.5014L16.0347 18.5333Z" fill="#838C95"/>
<path d="M11.7682 18.0001C12.0349 18.0001 12.3015 17.8001 12.3015 17.4668V10.9334C12.3015 10.6668 12.1015 10.4001 11.7682 10.4001C11.4349 10.4001 11.2349 10.7334 11.2349 11.0001V17.5334C11.2349 17.8001 11.4349 18.0001 11.7682 18.0001Z" fill="#838C95"/>
<path d="M14.2349 18.0001C14.5015 18.0001 14.7682 17.8001 14.7682 17.4668V10.9334C14.7682 10.6668 14.5682 10.4001 14.2349 10.4001C13.9015 10.4001 13.7015 10.6001 13.7015 10.9334V17.4668C13.7682 17.8001 13.9682 18.0001 14.2349 18.0001Z" fill="#838C95"/>
<path d="M9.23487 18.0001C9.50154 18.0001 9.76821 17.8001 9.76821 17.4668V10.9334C9.76821 10.6668 9.5682 10.4001 9.23487 10.4001C8.90154 10.4001 8.70154 10.6001 8.70154 10.9334V17.4668C8.70154 17.8001 8.9682 18.0001 9.23487 18.0001Z" fill="#838C95"/>
</svg>
