<svg width="50" height="50" viewBox="0 0 50 50" fill="none" xmlns="http://www.w3.org/2000/svg">
<circle opacity="0.08" cx="25" cy="25" r="25" fill="black"/>
<path d="M32.1575 26.275L27.5 30H21.25V28.75H26.3312C26.83 28.75 27.1287 28.1937 26.8512 27.7787L25.7413 26.1137C25.2788 25.4175 24.4988 25 23.6625 25H21.25H13.75C13.0588 25 12.5 25.5588 12.5 26.25V33.75C12.5 35.13 13.62 36.25 15 36.25H27.0487C28.13 36.25 29.1588 35.7838 29.8713 34.97L37.5 26.25L35.685 25.645C34.4788 25.2425 33.1512 25.48 32.1575 26.275ZM34.0725 19.2375C34.6362 18.6562 34.985 17.8525 34.985 16.965C34.985 16.0775 34.6362 15.2738 34.0725 14.6925C33.5087 14.11 32.7288 13.75 31.8675 13.75C31.8675 13.75 30.3125 13.7462 28.75 15.3575C27.1875 13.7462 25.6325 13.75 25.6325 13.75C24.7712 13.75 23.9912 14.11 23.4275 14.6913C22.8637 15.2738 22.515 16.0763 22.515 16.9638C22.515 17.8513 22.8637 18.6562 23.4275 19.2362L28.75 25L34.0725 19.2375Z" fill="#20CDAE"/>
</svg>
