<svg width="32" height="32" viewBox="0 0 32 32" fill="none" xmlns="http://www.w3.org/2000/svg">
<path d="M16.0069 21.1467C13.1802 21.1467 10.8602 18.8533 10.8602 16C10.8602 13.1733 13.1536 10.8533 16.0069 10.8533C18.8336 10.8533 21.1536 13.1467 21.1536 16C21.1536 18.8267 18.8336 21.1467 16.0069 21.1467ZM16.0069 12.7467C14.2202 12.7467 12.7536 14.2133 12.7536 16C12.7536 17.7867 14.2202 19.2533 16.0069 19.2533C17.7936 19.2533 19.2602 17.7867 19.2602 16C19.2602 14.2133 17.7936 12.7467 16.0069 12.7467ZM16.0069 28.2667H15.8736C14.9402 28.2667 14.1402 28.16 14.0869 28.16C13.6602 28.1067 13.3402 27.7867 13.2602 27.36L12.9936 25.44C12.4069 25.2533 11.8469 25.0133 11.3136 24.72L9.79356 25.8667C9.44689 26.1333 8.99357 26.1067 8.64691 25.8667C8.62024 25.84 7.98024 25.3334 7.31357 24.6934L7.2069 24.5867C6.54023 23.92 6.06023 23.28 6.03356 23.2533C5.76689 22.9067 5.76689 22.4533 6.03356 22.1066L7.2069 20.56C6.91357 20.0267 6.70024 19.44 6.51357 18.8533L4.64691 18.5867C4.22024 18.5333 3.90024 18.1867 3.84691 17.76C3.84691 17.7334 3.74023 16.9067 3.74023 15.9733V15.84C3.74023 14.9067 3.84691 14.1067 3.84691 14.0533C3.90024 13.6267 4.22024 13.3067 4.64691 13.2267L6.56689 12.96C6.75356 12.3733 6.99358 11.8133 7.28691 11.28L6.14023 9.75999C5.87357 9.41332 5.90023 8.96001 6.14023 8.61334C6.1669 8.58668 6.67357 7.94668 7.31357 7.28001L7.42025 7.17334C8.08691 6.50667 8.72691 6.02667 8.75358 6C9.10025 5.73333 9.55356 5.73333 9.90023 6L11.4469 7.17334C11.9802 6.88 12.5669 6.66668 13.1536 6.48001L13.4202 4.61334C13.4736 4.18668 13.8202 3.86668 14.2469 3.81334C14.2736 3.81334 15.1002 3.70667 16.0336 3.70667H16.1669C17.1002 3.70667 17.9002 3.81334 17.9536 3.81334C18.3802 3.86668 18.7002 4.18668 18.7802 4.61334L19.0469 6.53333C19.6336 6.72 20.1936 6.95999 20.7269 7.25332L22.2469 6.10667C22.5936 5.84 23.0469 5.86667 23.3936 6.10667C23.4202 6.13334 24.0602 6.64001 24.7269 7.28001L24.8336 7.38665C25.5002 8.05332 25.9802 8.69332 26.0069 8.71999C26.2736 9.06665 26.2736 9.52 26.0069 9.86666L24.8336 11.4133C25.1269 11.9467 25.3402 12.5333 25.5269 13.12L27.3936 13.3867C27.8202 13.44 28.1402 13.7867 28.1936 14.2133C28.1936 14.24 28.3002 15.0667 28.3002 16V16.1333C28.3002 17.0667 28.1936 17.8667 28.1936 17.92C28.1402 18.3467 27.8202 18.6667 27.3936 18.7467L25.4736 19.0133C25.2869 19.6 25.0469 20.16 24.7536 20.6934L25.9002 22.2133C26.1669 22.56 26.1402 23.0134 25.9002 23.36C25.8736 23.3867 25.3669 24.0267 24.7269 24.6934L24.6202 24.8C23.9536 25.4667 23.3136 25.9466 23.2869 25.9733C22.9402 26.24 22.4869 26.24 22.1402 25.9733L20.5936 24.8C20.0602 25.0933 19.4736 25.3067 18.8869 25.4934L18.6202 27.36C18.5669 27.7867 18.2202 28.1067 17.7936 28.16C17.7402 28.16 16.9402 28.2667 16.0069 28.2667ZM15.0469 26.3467C15.2869 26.3733 15.5802 26.3733 15.8736 26.3733H16.0069C16.3002 26.3733 16.5936 26.3733 16.8336 26.3467L17.0736 24.5867C17.1269 24.1867 17.4202 23.8933 17.7936 23.7867C18.6202 23.6 19.4202 23.28 20.1402 22.8267C20.3536 22.6934 20.6202 22.6667 20.8602 22.72C20.9936 22.7467 21.1269 22.8266 21.2336 22.9066L22.6469 23.9733C22.8336 23.8133 23.0469 23.6267 23.2602 23.4133L23.3669 23.3066C23.5802 23.0933 23.7669 22.88 23.9269 22.6934L22.8602 21.28C22.6202 20.96 22.6202 20.5333 22.8069 20.2133C23.2602 19.52 23.5802 18.7467 23.7669 17.9467C23.8469 17.5467 24.1669 17.2266 24.5669 17.1733L26.3536 16.9333C26.3802 16.6933 26.3802 16.4 26.3802 16.1067V15.9733C26.3802 15.68 26.3802 15.3867 26.3536 15.1467L24.5936 14.9067C24.2202 14.8533 23.9002 14.56 23.8202 14.1867C23.6336 13.36 23.3136 12.5867 22.8869 11.8667C22.8336 11.8133 22.8069 11.7333 22.7802 11.6533C22.6736 11.36 22.7269 11.0133 22.9136 10.7733L24.0069 9.33333C23.8469 9.14666 23.6602 8.93332 23.4469 8.71999L23.3402 8.61334C23.1269 8.40001 22.9136 8.21332 22.7269 8.05332L21.3136 9.11999C20.9669 9.35999 20.5136 9.35999 20.1936 9.11999C19.5002 8.69332 18.7269 8.37333 17.9269 8.15999C17.5536 8.07999 17.2602 7.75999 17.2069 7.35999L16.9669 5.57334C16.7269 5.54667 16.4336 5.54668 16.1402 5.54668H16.0069C15.7136 5.54668 15.4202 5.54667 15.1802 5.57334L14.9402 7.33333C14.8869 7.76 14.5669 8.08 14.1402 8.13333C13.3402 8.32 12.5669 8.64 11.8736 9.06666C11.6602 9.2 11.3936 9.22667 11.1536 9.17334C11.0202 9.14667 10.8869 9.06665 10.7802 8.98665L9.39355 7.91999C9.20689 8.07999 8.99357 8.26668 8.78024 8.48001L8.67357 8.58665C8.46023 8.79999 8.27357 9.01333 8.11357 9.2L9.18024 10.6133C9.42024 10.9333 9.42023 11.3333 9.23356 11.68C9.20689 11.7067 9.20691 11.7333 9.18024 11.76C8.75357 12.4533 8.43357 13.2267 8.24691 14.0267C8.16691 14.4 7.84691 14.6933 7.44691 14.7467L5.66022 14.9867C5.63355 15.2267 5.63356 15.52 5.63356 15.8133V15.9467C5.63356 16.24 5.63355 16.5333 5.66022 16.7733L7.42025 17.0133C7.84691 17.0667 8.16691 17.3867 8.22025 17.8133V17.84C8.40691 18.64 8.72691 19.3867 9.15358 20.08C9.28691 20.32 9.34023 20.6133 9.23356 20.88C9.20689 20.9867 9.12691 21.0933 9.04691 21.2L8.0069 22.5867C8.1669 22.7733 8.35356 22.9867 8.56689 23.2L8.67357 23.3066C8.8869 23.52 9.10025 23.7067 9.28691 23.8667L10.7002 22.8C11.0469 22.5333 11.5536 22.56 11.8736 22.8267C12.5669 23.2534 13.3136 23.5467 14.0869 23.7333C14.4602 23.8133 14.7536 24.1333 14.8069 24.5333L15.0469 26.3467Z" fill="white"/>
</svg>
