<svg width="50" height="50" viewBox="0 0 50 50" fill="none" xmlns="http://www.w3.org/2000/svg">
<circle opacity="0.08" cx="25" cy="25" r="25" fill="black"/>
<path d="M16.2814 35.9688C16.1664 36.4675 16.3664 36.9863 16.7889 37.2775C17.0039 37.425 17.2514 37.5 17.5002 37.5C17.7414 37.5 17.9839 37.43 18.1939 37.29L25.0002 32.7525L31.8064 37.29C32.2414 37.58 32.8114 37.5688 33.2377 37.26C33.6602 36.9513 33.8464 36.41 33.7027 35.9075L31.4164 27.9075L37.0864 22.805C37.4577 22.4713 37.5939 21.9475 37.4339 21.475C37.2727 21.0025 36.8464 20.6688 36.3489 20.63L29.2227 20.0625L26.1389 13.2363C25.9377 12.7875 25.4914 12.5 25.0002 12.5C24.5089 12.5 24.0627 12.7875 23.8614 13.235L20.7777 20.0625L13.6514 20.6288C13.1614 20.6675 12.7402 20.9888 12.5752 21.45C12.4077 21.9113 12.5277 22.4275 12.8777 22.77L18.1452 27.9038L16.2814 35.9688ZM25.0002 16.7863L27.5527 22.4375L28.2877 22.4963C28.2889 22.4963 28.2889 22.4963 28.2889 22.4963L33.2539 22.89L29.1652 26.57C29.1639 26.5713 29.1639 26.5713 29.1639 26.5725L28.5852 27.0925L28.7989 27.8388C28.7989 27.8388 28.7989 27.8413 28.7989 27.8425L30.3652 33.3238L25.0002 29.7475V16.7863Z" fill="#26BCEC"/>
</svg>
