<svg width="32" height="32" viewBox="0 0 32 32" fill="none" xmlns="http://www.w3.org/2000/svg">
<path d="M20.9 10.2H6.4L8.4 8.19998C8.7 7.89998 8.7 7.49998 8.4 7.19998C8.1 6.89998 7.7 6.89998 7.4 7.19998L4.2 10.4C4.1 10.6 4 10.8 4 10.9C4 11.1 4.1 11.4 4.3 11.5L7.4 14.6C7.7 14.9 8.1 14.9 8.4 14.6C8.7 14.3 8.7 13.9 8.4 13.6L6.4 11.6H20.9C24 11.6 26.5 14.1 26.5 17.2C26.5 20.3 24.1 23 20.9 23H4.7C4.3 23 4 23.3 4 23.7C4 24.1 4.3 24.4 4.7 24.4H20.9C24.8 24.4 28 21.2 28 17.3C28 13.4 24.8 10.2 20.9 10.2Z" fill="#061523"/>
</svg>
