<svg width="16" height="16" viewBox="0 0 16 16" fill="none" xmlns="http://www.w3.org/2000/svg">
<path d="M8 0C3.6 0 0 3.6 0 8C0 12.4 3.6 16 8 16C12.4 16 16 12.4 16 8C16 3.6 12.4 0 8 0ZM8 15.3333C4 15.3333 0.666667 12 0.666667 8C0.666667 4 4 0.666667 8 0.666667C12 0.666667 15.3333 4 15.3333 8C15.3333 12 12 15.3333 8 15.3333Z" fill="white"/>
<path d="M6.26656 6.60004C6.26656 6.00004 5.79989 5.53337 5.19989 5.53337C4.59989 5.53337 4.19989 6.0667 4.19989 6.60004C4.19989 7.20004 4.66656 7.6667 5.26656 7.6667C5.86656 7.6667 6.26656 7.20004 6.26656 6.60004ZM4.86656 6.60004C4.86656 6.40004 4.99989 6.2667 5.19989 6.2667C5.39989 6.2667 5.53322 6.40004 5.53322 6.60004C5.53322 6.80004 5.39989 6.93337 5.19989 6.93337C4.99989 6.93337 4.86656 6.80004 4.86656 6.60004Z" fill="white"/>
<path d="M10.8001 5.53337C10.2001 5.53337 9.7334 6.00004 9.7334 6.60004C9.7334 7.20004 10.2001 7.6667 10.8001 7.6667C11.4001 7.6667 11.8667 7.20004 11.8667 6.60004C11.8001 6.0667 11.3334 5.53337 10.8001 5.53337ZM10.8001 6.93337C10.6001 6.93337 10.4667 6.80004 10.4667 6.60004C10.4667 6.40004 10.6001 6.2667 10.8001 6.2667C11.0001 6.2667 11.1334 6.40004 11.1334 6.60004C11.1334 6.80004 11.0001 6.93337 10.8001 6.93337Z" fill="white"/>
<path d="M4.74011 11.7C4.87344 11.8333 5.07344 11.8333 5.20678 11.7C5.94011 10.9 7.00677 10.4333 8.07344 10.4333C9.14011 10.4333 10.2068 10.9 10.9401 11.7C11.0734 11.8333 11.2734 11.8333 11.4068 11.7C11.5401 11.5666 11.5401 11.3666 11.4068 11.2333C10.5401 10.3 9.34011 9.69996 8.00677 9.69996C6.74011 9.69996 5.47344 10.2333 4.60677 11.2333C4.54011 11.3 4.54011 11.5666 4.74011 11.7Z" fill="white"/>
</svg>
