<svg width="32" height="32" viewBox="0 0 32 32" fill="none" xmlns="http://www.w3.org/2000/svg">
<path d="M28.2736 18.9334C28.2736 19.52 27.7936 20 27.2069 20H22.1936C21.7402 20 21.3402 19.76 21.1802 19.3067L20.3802 17.0667L17.7669 25.8934C17.6336 26.3467 17.2069 26.6667 16.7536 26.6667H16.7269C16.2469 26.64 15.8202 26.32 15.7136 25.84L12.2736 10.9334L10.1936 19.2267C10.0869 19.7067 9.66023 20 9.15356 20H4.8069C4.22023 20 3.74023 19.52 3.74023 18.9334C3.74023 18.3467 4.22023 17.8667 4.8069 17.8667H8.3269L11.2869 6.10668C11.3936 5.62668 11.8469 5.33337 12.3269 5.33337C12.8069 5.33337 13.2336 5.68007 13.3669 6.16007L16.8869 21.4134L19.2869 13.3067C19.4202 12.8533 19.8202 12.5334 20.2736 12.5334C20.7269 12.5067 21.1536 12.8001 21.3136 13.2267L22.9669 17.8667H27.2336C27.7936 17.8667 28.2736 18.3467 28.2736 18.9334Z" fill="white"/>
</svg>
