<svg width="24" height="24" viewBox="0 0 24 24" fill="none" xmlns="http://www.w3.org/2000/svg">
<path d="M20.5 3.5C18.2 1.2 15.2 0 12 0C8.8 0 5.8 1.2 3.5 3.5C1.2 5.8 0 8.8 0 12C0 15.2 1.2 18.2 3.5 20.5C5.8 22.8 8.8 24 12 24C15.2 24 18.2 22.8 20.5 20.5C22.8 18.2 24 15.2 24 12C24 8.8 22.8 5.8 20.5 3.5Z" fill="#EB5757"/>
<path d="M17.5826 6H6.24043C5.34683 6 4.62012 6.72671 4.62012 7.62031V11.6711H6.24043V9.24063L11.4254 13.1294C11.5696 13.2371 11.7406 13.2914 11.9115 13.2914C12.0825 13.2914 12.2534 13.2371 12.3976 13.1294L17.5826 9.24063V16.532H11.1014V18.1524H17.5826C18.4762 18.1524 19.2029 17.4256 19.2029 16.532V7.62031C19.2029 6.72671 18.4762 6 17.5826 6ZM11.9115 11.4686L6.78 7.62031H17.0431L11.9115 11.4686Z" fill="white"/>
<path d="M3 13.494H8.6711V15.1143H3V13.494ZM4.62031 15.9245H9.48126V17.5448H4.62031V15.9245ZM7.05079 18.355H10.2914V19.9753H7.05079V18.355Z" fill="white"/>
</svg>
