<svg width="24" height="24" viewBox="0 0 24 24" fill="none" xmlns="http://www.w3.org/2000/svg">
<path d="M18.9365 5.33409C18.825 5.12727 18.602 5 18.379 5H5.62001C5.38108 5 5.174 5.12727 5.0625 5.33409C4.951 5.54091 4.99879 5.79545 5.12622 5.98636L10.096 13.2727V18.0932C10.096 18.5864 10.4305 19 10.9403 19H13.0747C13.5685 19 13.9189 18.6023 13.9189 18.0932V13.2727L18.8888 5.98636C19.0003 5.79545 19.048 5.54091 18.9365 5.33409ZM12.7721 12.7318C12.7084 12.8432 12.6287 12.9546 12.6287 13.0818V17.7273H11.3544V13.0818C11.3544 12.9546 11.2907 12.8273 11.211 12.7318L9.69779 10.5204C10.0164 10.425 10.3987 10.3295 10.8128 10.3455C11.3066 10.3455 11.6411 10.4409 12.0075 10.5364C12.3898 10.6318 12.7721 10.7273 13.3137 10.7432C13.6322 10.7432 13.9189 10.7273 14.1738 10.6955L12.7721 12.7318ZM15.0977 9.32726C15.0818 9.32726 14.4127 9.62955 13.3137 9.61364C12.9154 9.61364 12.6128 9.53409 12.2783 9.43864C11.896 9.34319 11.45 9.23182 10.8128 9.21591C10.096 9.21591 9.45887 9.3909 9.02879 9.55L6.79875 6.25682H17.1684L15.0977 9.32726ZM13.7915 8.27727C13.68 8.16591 13.6004 7.99092 13.6004 7.83183C13.6004 7.65683 13.6641 7.49773 13.7915 7.38636C13.903 7.275 14.0782 7.19546 14.2375 7.19546C14.4127 7.19546 14.572 7.25909 14.6835 7.38636C14.795 7.51364 14.8747 7.67273 14.8747 7.83183C14.8747 8.00683 14.811 8.16591 14.6835 8.27727C14.5561 8.38863 14.3968 8.46819 14.2375 8.46819C14.0782 8.46819 13.903 8.38863 13.7915 8.27727Z" fill="#838C95"/>
</svg>
