<svg width="32" height="32" viewBox="0 0 32 32" fill="none" xmlns="http://www.w3.org/2000/svg">
<circle cx="16" cy="16" r="16" fill="#F2F2F2"/>
<path d="M22.0003 18.9334L24.0003 16.9334L22.0003 14.9334L22.3336 14.6667C22.867 14.1333 22.867 13.2 22.3336 12.6667C22.0669 12.4 21.7336 12.2666 21.3336 12.2666C20.9336 12.2666 20.6003 12.4 20.3336 12.6667L20.0002 12.9333L18.0002 10.9333L17.4002 11.5333V12.4666C18.4669 12.7333 19.2002 13.6667 19.2002 14.7334C19.2002 15.8667 18.4002 16.8001 17.4002 17.0001V19.8668H15.6668L15.3335 20.3334L18.0002 23.0002L20.0002 21.0001L20.2669 21.2668C20.8003 21.8001 21.7336 21.8001 22.2669 21.2668C22.8003 20.7335 22.8003 19.8001 22.2669 19.2668L22.0003 18.9334Z" fill="#115CE5"/>
<path d="M16.4668 19V16.2H16.8668C17.6668 16.2 18.2668 15.5333 18.2668 14.7999C18.2668 13.9999 17.6002 13.3999 16.8668 13.3999H16.4668V10.5332H13.6668V10.0665C13.6668 9.33318 13.0001 8.6665 12.2667 8.6665C11.4667 8.6665 10.8 9.33318 10.8 10.0665V10.5332H8V13.3332H8.40001C9.06668 13.3332 9.66669 13.7999 9.80003 14.4666C9.8667 14.5999 9.8667 14.6666 9.8667 14.7999C9.8667 14.9333 9.8667 14.9999 9.80003 15.0666C9.66669 15.7333 9.06668 16.2 8.40001 16.2H8V19H10.8V18.5333C10.8 17.7333 11.4667 17.1333 12.2001 17.1333C13.0001 17.1333 13.6001 17.8 13.6001 18.5333V19H16.4668Z" fill="#115CE5"/>
</svg>
