<svg width="24" height="24" viewBox="0 0 24 24" fill="none" xmlns="http://www.w3.org/2000/svg">
<path d="M8.24269 6.25843C8.24269 5.75506 8.6382 5.35955 9.14157 5.35955H19.1011C19.6045 5.35955 20 5.75506 20 6.25843C20 6.7618 19.6045 7.1573 19.1011 7.1573H9.14157C8.6382 7.1573 8.24269 6.7618 8.24269 6.25843ZM19.1011 11.1124H9.14157C8.6382 11.1124 8.24269 11.5079 8.24269 12.0112C8.24269 12.5146 8.6382 12.9101 9.14157 12.9101H19.1011C19.6045 12.9101 20 12.5146 20 12.0112C20 11.5079 19.6045 11.1124 19.1011 11.1124ZM19.1011 16.8652H9.14157C8.6382 16.8652 8.24269 17.2607 8.24269 17.764C8.24269 18.2674 8.6382 18.6629 9.14157 18.6629H19.1011C19.6045 18.6629 20 18.2674 20 17.764C20 17.2607 19.6045 16.8652 19.1011 16.8652ZM5.25843 10.8247C4.5573 10.8247 4 11.4 4 12.1011C4 12.8022 4.5573 13.3775 5.25843 13.3775C5.95955 13.3775 6.51685 12.8022 6.51685 12.1011C6.51685 11.4 5.94157 10.8247 5.25843 10.8247ZM5.25843 5C4.5573 5 4 5.57528 4 6.2764C4 6.97752 4.5573 7.5528 5.25843 7.5528C5.95955 7.5528 6.51685 6.97752 6.51685 6.2764C6.51685 5.57528 5.94157 5 5.25843 5ZM5.25843 16.4697C4.5573 16.4697 4 17.0449 4 17.7461C4 18.4472 4.5573 19.0225 5.25843 19.0225C5.95955 19.0225 6.51685 18.4472 6.51685 17.7461C6.51685 17.0449 5.94157 16.4697 5.25843 16.4697Z" fill="#838C95"/>
</svg>
