<svg width="32" height="32" viewBox="0 0 32 32" fill="none" xmlns="http://www.w3.org/2000/svg">
<path d="M18.1053 8.9226C18.9222 8.34163 19.9212 8 20.9999 8C23.7614 8 25.9999 10.2386 25.9999 13C25.9999 15.7614 23.7614 18 20.9999 18C19.4885 18 18.1336 17.3293 17.2168 16.2694" stroke="white" stroke-width="2"/>
<path d="M17.5 18H23.5C25.9853 18 28 20.0147 28 22.5V22.5C28 23.3284 27.3284 24 26.5 24H22" stroke="white" stroke-width="2"/>
<circle cx="13" cy="12" r="6" stroke="white" stroke-width="2"/>
<path d="M4 24C4 20.6863 6.68629 18 10 18H16C19.3137 18 22 20.6863 22 24V24C22 25.1046 21.1046 26 20 26H6C4.89543 26 4 25.1046 4 24V24Z" stroke="white" stroke-width="2"/>
</svg>
