<svg width="24" height="24" viewBox="0 0 24 24" fill="none" xmlns="http://www.w3.org/2000/svg">
<path d="M20.55 4.275L19.725 3.45C19.125 2.85 18.225 2.85 17.625 3.45L4.35 16.725L3 21L7.275 19.65L20.55 6.375C20.85 6.075 21 5.7 21 5.325C21 4.95 20.85 4.575 20.55 4.275ZM17.4 4.5L18.225 5.325L5.85 17.7L5.025 16.875L17.4 4.5ZM3.9 20.1L4.725 17.475L6.525 19.275L3.9 20.1ZM7.125 18.975L6.3 18.15L18.675 5.775L19.5 6.6L7.125 18.975ZM20.175 5.925L19.95 6.15L17.85 4.05L18.075 3.825C18.45 3.45 18.975 3.45 19.35 3.825L20.175 4.65C20.325 4.8 20.4 5.025 20.4 5.25C20.4 5.475 20.325 5.775 20.175 5.925Z" fill="#838C95"/>
</svg>
