<svg width="32" height="32" viewBox="0 0 32 32" fill="none" xmlns="http://www.w3.org/2000/svg">
<path d="M24.5 7.5C22.2 5.2 19.2 4 16 4C12.8 4 9.8 5.2 7.5 7.5C5.2 9.8 4 12.8 4 16C4 19.2 5.2 22.2 7.5 24.5C9.8 26.8 12.8 28 16 28C19.2 28 22.2 26.8 24.5 24.5C26.8 22.2 28 19.2 28 16C28 12.8 26.8 9.8 24.5 7.5Z" fill="#20CDAE"/>
<path d="M23.7 13.4C23.6 13.1 23.4 13 23.1 12.9L18.6 12.2L16.6 8.10005C16.5 8.00005 16.3 7.80005 16 7.80005C15.7 7.80005 15.5 8.00005 15.4 8.20005L13.4 12.3L8.89997 12.9C8.59997 13 8.39997 13.2 8.29997 13.4C8.19997 13.7 8.29997 13.9 8.49997 14.1L11.8 17.3L11 21.8C11 22.1 11.1 22.3 11.3 22.5C11.5 22.7 11.8 22.7 12 22.6L16 20.5L20 22.6C20.1 22.7 20.2 22.7 20.3 22.7C20.4 22.7 20.6 22.7 20.7 22.6C20.9 22.4 21 22.2 21 21.9L20.2 17.4L23.5 14.2C23.7 13.9 23.8 13.7 23.7 13.4Z" fill="white"/>
</svg>
