<svg width="50" height="50" viewBox="0 0 50 50" fill="none" xmlns="http://www.w3.org/2000/svg">
<circle opacity="0.08" cx="25" cy="25" r="25" fill="black"/>
<path d="M31.6047 14.6338L33.37 12.8635L37.1318 16.6146L35.3666 18.3849L31.6047 14.6338Z" fill="#F54A4A"/>
<path d="M18.3723 14.6338L14.6344 18.3824L12.8641 16.6172L16.602 12.8686L18.3723 14.6338Z" fill="#F54A4A"/>
<path d="M25 15C18.9012 15 13.75 20.1512 13.75 26.25C13.75 32.3488 18.9012 37.5 25 37.5C31.0988 37.5 36.25 32.3488 36.25 26.25C36.25 20.1512 31.0988 15 25 15ZM26.25 32.5H23.75V30H26.25V32.5ZM26.25 27.5H23.75V20H26.25V27.5Z" fill="#F54A4A"/>
</svg>
