<svg width="32" height="32" viewBox="0 0 32 32" fill="none" xmlns="http://www.w3.org/2000/svg">
<path d="M24.5 7.5C22.2 5.2 19.2 4 16 4C12.8 4 9.8 5.2 7.5 7.5C5.2 9.8 4 12.8 4 16C4 19.2 5.2 22.2 7.5 24.5C9.8 26.8 12.8 28 16 28C19.2 28 22.2 26.8 24.5 24.5C26.8 22.2 28 19.2 28 16C28 12.8 26.8 9.8 24.5 7.5Z" fill="#F9CD34"/>
<path d="M10.4431 20.0547L9.15256 14.82C9.13514 14.8209 9.11761 14.8214 9.1 14.8214C8.5 14.8214 8 14.2857 8 13.6428C8 12.9999 8.5 12.4642 9.1 12.4642C9.7 12.4642 10.2 12.9999 10.2 13.6428C10.2 13.8447 10.1507 14.036 10.0644 14.2035L12.7 16.3214L15.302 12.1913C15.0575 11.9738 14.8999 11.6467 14.8999 11.2857C14.8999 10.6429 15.3999 10 15.9999 10C16.5999 10 17.0999 10.5357 17.0999 11.1786C17.0999 11.5773 16.9586 11.9154 16.7361 12.1447L19.3 16.2143L21.899 14.1258C21.8356 13.9778 21.8 13.8141 21.8 13.6428C21.8 12.9999 22.3 12.4642 22.9 12.4642C23.5 12.4642 24 12.9999 24 13.6428C24 14.2683 23.5268 14.7923 22.9486 14.8202L21.6001 20.3929C21.5933 20.4002 21.5865 20.407 21.5797 20.4133L21.9 21.3571C22 21.5714 21.9 21.8928 21.6 21.9999H10.5C10.2 21.9999 10 21.7857 10 21.4642V21.3571L10.4 20.1785C10.4 20.1348 10.4166 20.0911 10.4431 20.0547Z" fill="white" stroke="white" stroke-width="0.5"/>
</svg>
