<svg width="56" height="56" viewBox="0 0 56 56" fill="none" xmlns="http://www.w3.org/2000/svg">
<g filter="url(#filter0_d)">
<rect x="16" y="16" width="24" height="24" rx="4" fill="#20CDAE"/>
</g>
<path d="M28 20C23.6 20 20 23.6 20 28C20 32.4 23.6 36 28 36C32.4 36 36 32.4 36 28C36 23.6 32.4 20 28 20ZM28 35.3333C24 35.3333 20.6667 32 20.6667 28C20.6667 24 24 20.6667 28 20.6667C32 20.6667 35.3333 24 35.3333 28C35.3333 32 32 35.3333 28 35.3333Z" fill="white"/>
<path d="M26.2665 26.6C26.2665 26 25.7999 25.5333 25.1999 25.5333C24.5999 25.5333 24.1999 26.0667 24.1999 26.6C24.1999 27.2 24.6665 27.6667 25.2665 27.6667C25.8665 27.6667 26.2665 27.2 26.2665 26.6ZM24.8665 26.6C24.8665 26.4 24.9999 26.2667 25.1999 26.2667C25.3999 26.2667 25.5332 26.4 25.5332 26.6C25.5332 26.8 25.3999 26.9333 25.1999 26.9333C24.9999 26.9333 24.8665 26.8 24.8665 26.6Z" fill="white"/>
<path d="M30.8001 25.5333C30.2001 25.5333 29.7334 26 29.7334 26.6C29.7334 27.2 30.2001 27.6667 30.8001 27.6667C31.4001 27.6667 31.8667 27.2 31.8667 26.6C31.8001 26.0667 31.3334 25.5333 30.8001 25.5333ZM30.8001 26.9333C30.6001 26.9333 30.4667 26.8 30.4667 26.6C30.4667 26.4 30.6001 26.2667 30.8001 26.2667C31.0001 26.2667 31.1334 26.4 31.1334 26.6C31.1334 26.8 31.0001 26.9333 30.8001 26.9333Z" fill="white"/>
<path d="M31.3334 29.8001C31.2001 29.6667 31.0001 29.6667 30.8667 29.8001C30.1334 30.6001 29.0667 31.0667 28.0001 31.0667C26.9334 31.0667 25.8667 30.6001 25.1334 29.8001C25.0001 29.6667 24.8001 29.6667 24.6667 29.8001C24.5334 29.9334 24.5334 30.1334 24.6667 30.2667C25.5334 31.2001 26.7334 31.8001 28.0667 31.8001C29.3334 31.8001 30.6001 31.2667 31.4667 30.2667C31.5334 30.2001 31.5334 29.9334 31.3334 29.8001Z" fill="white"/>
<defs>
<filter id="filter0_d" x="0" y="0" width="56" height="56" filterUnits="userSpaceOnUse" color-interpolation-filters="sRGB">
<feFlood flood-opacity="0" result="BackgroundImageFix"/>
<feColorMatrix in="SourceAlpha" type="matrix" values="0 0 0 0 0 0 0 0 0 0 0 0 0 0 0 0 0 0 127 0"/>
<feOffset/>
<feGaussianBlur stdDeviation="8"/>
<feColorMatrix type="matrix" values="0 0 0 0 0 0 0 0 0 0 0 0 0 0 0 0 0 0 0.12 0"/>
<feBlend mode="normal" in2="BackgroundImageFix" result="effect1_dropShadow"/>
<feBlend mode="normal" in="SourceGraphic" in2="effect1_dropShadow" result="shape"/>
</filter>
</defs>
</svg>
