<svg width="50" height="50" viewBox="0 0 50 50" fill="none" xmlns="http://www.w3.org/2000/svg">
<path d="M12.0206 30.9762L12.1156 30.565L11.8133 30.2703L1.2794 20.0039C1.27925 20.0038 1.27911 20.0036 1.27896 20.0035C0.787704 19.5224 0.621189 18.7993 0.854808 18.156L0.85602 18.1526C1.08603 17.5096 1.67418 17.0595 2.36147 17.0051L2.36175 17.0051L16.6143 15.8726L17.0559 15.8375L17.2383 15.4337L23.4058 1.78122L23.4067 1.77936C23.6877 1.15268 24.3115 0.749954 24.9998 0.749954C25.6882 0.749954 26.312 1.15268 26.593 1.77936L26.5939 1.78122L32.7614 15.4337L32.9437 15.8374L33.3853 15.8726L47.6372 17.0075C47.6373 17.0075 47.6374 17.0076 47.6375 17.0076C48.3332 17.0636 48.9307 17.5288 49.1572 18.1913C49.3807 18.8521 49.1904 19.5832 48.6702 20.0529C48.6701 20.0529 48.67 20.053 48.6699 20.0531L37.3306 30.2575L36.9825 30.5707L37.1112 31.021L41.6837 47.021L41.6838 47.0212C41.8845 47.7229 41.6244 48.4812 41.0332 48.9138C40.4367 49.3466 39.6365 49.3614 39.0284 48.9559L25.4159 39.8809L24.9998 39.6036L24.5838 39.8809L10.9713 48.9559C10.6775 49.1518 10.3379 49.25 9.99984 49.25C9.65371 49.25 9.30742 49.1458 9.00581 48.9377L9.00552 48.9375C8.41483 48.5303 8.1346 47.805 8.29561 47.1062C8.29563 47.1061 8.29565 47.1061 8.29567 47.106L12.0206 30.9762ZM19.8189 18.2186L19.8178 18.2211C19.5582 18.8011 18.9993 19.1939 18.3628 19.2448C18.3627 19.2448 18.3627 19.2448 18.3626 19.2448L8.13775 20.0598L6.49082 20.1911L7.67377 21.3445L15.2688 28.7495L15.2696 28.7503C15.705 29.1734 15.8882 29.7977 15.7514 30.3945C15.7514 30.3946 15.7514 30.3947 15.7513 30.3948L13.1266 41.7587L12.7014 43.5996L14.2734 42.5515L24.0334 36.044L24.0347 36.0431C24.6221 35.6497 25.385 35.6497 25.9725 36.0431L25.9738 36.044L35.3138 42.2715L37.0117 43.4035L36.451 41.4414L33.3191 30.481C33.319 30.4806 33.3189 30.4802 33.3188 30.4799C33.1367 29.834 33.3352 29.1449 33.832 28.697L42.0091 21.3374L43.3059 20.1702L41.5666 20.0323L31.6371 19.2448C31.0005 19.194 30.4415 18.8012 30.1819 18.2211L30.1808 18.2186L25.6833 8.2661L24.9998 6.75369L24.3164 8.2661L19.8189 18.2186Z" fill="#4F4F4F" stroke="white" stroke-width="1.5"/>
</svg>
