<svg width="50" height="50" viewBox="0 0 50 50" fill="none" xmlns="http://www.w3.org/2000/svg">
<circle opacity="0.08" cx="25" cy="25" r="25" fill="black"/>
<path d="M18.4838 18.75H31.5162C31.3812 18.5525 31.265 18.3362 31.1188 18.1487L34.635 14.6337L32.8675 12.8662L29.31 16.4237C29.0187 16.2162 28.7188 16.0225 28.4062 15.8562C26.2525 14.7187 23.7487 14.7175 21.5938 15.8562C21.2812 16.0212 20.9838 16.215 20.6913 16.4225L17.1337 12.8662L15.3663 14.6337L18.8825 18.1487C18.735 18.3375 18.62 18.5525 18.4838 18.75ZM17.195 21.25H12.5V23.75H15.3838C15.3025 24.3687 15.25 24.9962 15.25 25.625C15.25 26.2587 15.3025 26.8912 15.3838 27.5137H12.5V30.0137H15.9412C15.9575 30.0625 15.9675 30.1137 15.9838 30.1612C16.2188 30.855 16.51 31.5275 16.8525 32.1612C16.9075 32.2625 16.9713 32.355 17.0288 32.4537L14.1163 35.3662L15.8837 37.1337L18.5212 34.495C18.815 34.8125 19.1188 35.1175 19.4412 35.39C19.9637 35.8325 20.525 36.2112 21.1063 36.5187C21.705 36.835 22.3337 37.08 22.9762 37.2437C23.2312 37.3087 23.49 37.35 23.7487 37.3912V30H26.2487V37.3925C26.5075 37.3525 26.7662 37.3112 27.0212 37.245C27.6637 37.0812 28.2925 36.8362 28.8913 36.52C29.4725 36.2125 30.0337 35.8325 30.5575 35.39C30.88 35.1175 31.1825 34.8125 31.475 34.495L34.1138 37.1337L35.8813 35.3662L32.9688 32.4537C33.0275 32.3537 33.0912 32.26 33.1462 32.1587C33.4875 31.5275 33.78 30.855 34.0138 30.16C34.03 30.1112 34.04 30.0612 34.0563 30.0125H37.5V27.5125H34.615C34.6962 26.8887 34.7487 26.2575 34.7487 25.6237C34.7487 24.995 34.6963 24.3675 34.6163 23.7487H37.5V21.25H32.805H17.195Z" fill="#F9CD34"/>
</svg>
