<svg width="24" height="24" viewBox="0 0 24 24" fill="none" xmlns="http://www.w3.org/2000/svg">
<path d="M7.82609 8.09566V5.86957C7.82609 5.38261 8.2087 5 8.69565 5C9.18261 5 9.56522 5.38261 9.56522 5.86957V8.09566C9.56522 8.58262 9.18261 8.96523 8.69565 8.96523C8.2087 8.96523 7.82609 8.58262 7.82609 8.09566ZM15.3043 8.96523C15.7913 8.96523 16.1739 8.58262 16.1739 8.09566V5.86957C16.1739 5.38261 15.7913 5 15.3043 5C14.8174 5 14.4348 5.38261 14.4348 5.86957V8.09566C14.4348 8.58262 14.8174 8.96523 15.3043 8.96523ZM20 6.98259V18.7391C20 19.1217 19.687 19.4348 19.3043 19.4348H4.69565C4.31304 19.4348 4 19.1217 4 18.7391V6.98259C4 6.59998 4.31304 6.21739 4.69565 6.21739H6.31305C6.69566 6.21739 7.0087 6.53043 7.0087 6.91304C7.0087 7.29565 6.69566 7.6087 6.31305 7.6087H5.37392V10.5652H18.5913V7.6087H17.6696C17.287 7.6087 16.9739 7.29565 16.9739 6.91304C16.9739 6.53043 17.287 6.21739 17.6696 6.21739H19.287C19.687 6.21739 20 6.59998 20 6.98259ZM18.6087 18.0435V11.7826H5.3913V18.0435H18.6087ZM10.9043 7.6087H13.0957C13.4783 7.6087 13.7913 7.29565 13.7913 6.91304C13.7913 6.53043 13.4783 6.21739 13.0957 6.21739H10.9043C10.5217 6.21739 10.2087 6.53043 10.2087 6.91304C10.2087 7.29565 10.5217 7.6087 10.9043 7.6087Z" fill="#838C95"/>
</svg>
