<svg width="50" height="50" viewBox="0 0 50 50" fill="none" xmlns="http://www.w3.org/2000/svg">
<circle cx="25" cy="25" r="25" fill="#EBEBEB"/>
<path d="M31.6313 25.125C31.6313 25.75 31.1313 26.25 30.5063 26.25H26.0063V30.5C26.0063 31.125 25.5063 31.625 24.8813 31.625C24.2563 31.625 23.7563 31.125 23.7563 30.5V26.25H19.5063C18.8813 26.25 18.3813 25.75 18.3813 25.125C18.3813 24.5 18.8813 24 19.5063 24H23.7563V19.5C23.7563 18.875 24.2563 18.375 24.8813 18.375C25.5063 18.375 26.0063 18.875 26.0063 19.5V24H30.5063C31.1313 24 31.6313 24.5 31.6313 25.125Z" fill="#052F7B"/>
</svg>
