<svg width="50" height="50" viewBox="0 0 50 50" fill="none" xmlns="http://www.w3.org/2000/svg">
<circle opacity="0.08" cx="25" cy="25" r="25" fill="black"/>
<path d="M21.875 25C24.6325 25 26.875 22.7575 26.875 20C26.875 17.2425 24.6325 15 21.875 15C19.1175 15 16.875 17.2425 16.875 20C16.875 22.7575 19.1175 25 21.875 25ZM23.75 26.25H20C15.8637 26.25 12.5 29.6138 12.5 33.75V35H13.75H15H28.75H30H31.25V33.75C31.25 29.6138 27.8862 26.25 23.75 26.25Z" fill="#CA60EF"/>
<path d="M30.755 23.81C31.51 22.5237 31.845 21.025 31.6937 19.51C31.47 17.28 30.225 15.3087 28.19 13.96L26.8087 16.0425C28.2075 16.97 29.0587 18.2912 29.2062 19.76C29.3437 21.1412 28.8562 22.5025 27.8662 23.4925L26.3762 24.9825L28.3987 25.5762C33.6887 27.1262 33.75 32.4462 33.75 32.5H36.25C36.25 30.2637 35.055 25.8937 30.755 23.81Z" fill="#CA60EF"/>
</svg>
