<svg width="56" height="56" viewBox="0 0 56 56" fill="none" xmlns="http://www.w3.org/2000/svg">
<g filter="url(#filter0_d)">
<rect x="16" y="16" width="24" height="24" rx="4" fill="#FD6A65"/>
</g>
<path d="M28 20C23.6 20 20 23.6 20 28C20 32.4 23.6 36 28 36C32.4 36 36 32.4 36 28C36 23.6 32.4 20 28 20ZM28 35.3333C24 35.3333 20.6667 32 20.6667 28C20.6667 24 24 20.6667 28 20.6667C32 20.6667 35.3333 24 35.3333 28C35.3333 32 32 35.3333 28 35.3333Z" fill="white"/>
<path d="M26.2666 26.6C26.2666 26 25.7999 25.5333 25.1999 25.5333C24.5999 25.5333 24.1999 26.0667 24.1999 26.6C24.1999 27.2 24.6666 27.6667 25.2666 27.6667C25.8666 27.6667 26.2666 27.2 26.2666 26.6ZM24.8666 26.6C24.8666 26.4 24.9999 26.2667 25.1999 26.2667C25.3999 26.2667 25.5332 26.4 25.5332 26.6C25.5332 26.8 25.3999 26.9333 25.1999 26.9333C24.9999 26.9333 24.8666 26.8 24.8666 26.6Z" fill="white"/>
<path d="M30.8001 25.5333C30.2001 25.5333 29.7334 26 29.7334 26.6C29.7334 27.2 30.2001 27.6667 30.8001 27.6667C31.4001 27.6667 31.8667 27.2 31.8667 26.6C31.8001 26.0667 31.3334 25.5333 30.8001 25.5333ZM30.8001 26.9333C30.6001 26.9333 30.4667 26.8 30.4667 26.6C30.4667 26.4 30.6001 26.2667 30.8001 26.2667C31.0001 26.2667 31.1334 26.4 31.1334 26.6C31.1334 26.8 31.0001 26.9333 30.8001 26.9333Z" fill="white"/>
<path d="M24.7401 31.6999C24.8734 31.8333 25.0734 31.8333 25.2068 31.6999C25.9401 30.8999 27.0068 30.4333 28.0734 30.4333C29.1401 30.4333 30.2068 30.8999 30.9401 31.6999C31.0734 31.8333 31.2734 31.8333 31.4068 31.6999C31.5401 31.5666 31.5401 31.3666 31.4068 31.2333C30.5401 30.2999 29.3401 29.6999 28.0068 29.6999C26.7401 29.6999 25.4734 30.2333 24.6068 31.2333C24.5401 31.2999 24.5401 31.5666 24.7401 31.6999Z" fill="white"/>
<defs>
<filter id="filter0_d" x="0" y="0" width="56" height="56" filterUnits="userSpaceOnUse" color-interpolation-filters="sRGB">
<feFlood flood-opacity="0" result="BackgroundImageFix"/>
<feColorMatrix in="SourceAlpha" type="matrix" values="0 0 0 0 0 0 0 0 0 0 0 0 0 0 0 0 0 0 127 0"/>
<feOffset/>
<feGaussianBlur stdDeviation="8"/>
<feColorMatrix type="matrix" values="0 0 0 0 0 0 0 0 0 0 0 0 0 0 0 0 0 0 0.12 0"/>
<feBlend mode="normal" in2="BackgroundImageFix" result="effect1_dropShadow"/>
<feBlend mode="normal" in="SourceGraphic" in2="effect1_dropShadow" result="shape"/>
</filter>
</defs>
</svg>
